<svg width="28" height="29" viewBox="0 0 28 29" fill="none" xmlns="http://www.w3.org/2000/svg">
<path fill-rule="evenodd" clip-rule="evenodd" d="M14 0C6.26635 0 0 6.49014 0 14.5C0 22.5099 6.26635 29 14 29C21.7337 29 28 22.5099 28 14.5C28 6.49014 21.7337 0 14 0ZM14 1.20601C21.074 1.20601 26.8356 7.16635 26.8356 14.5C26.8356 17.7416 25.7115 20.7113 23.8471 23.0187C22.501 22.4471 19.4115 21.3387 17.5942 20.781C17.4327 20.7322 17.4125 20.7183 17.4125 20.0351C17.4125 19.4704 17.6346 18.8988 17.8567 18.4108C18.099 17.888 18.375 17.0026 18.476 16.2079C18.7587 15.8663 19.149 15.1971 19.3913 13.9144C19.6067 12.7851 19.5058 12.3738 19.3644 11.9904C19.351 11.9486 19.3308 11.9067 19.324 11.8719C19.2702 11.607 19.3442 10.2337 19.5327 9.16707C19.6606 8.4351 19.499 6.88053 18.5298 5.59087C17.9173 4.77524 16.7394 3.77837 14.5923 3.63894H13.4144C11.301 3.77837 10.1298 4.77524 9.51058 5.59087C8.53462 6.88053 8.37308 8.4351 8.50096 9.16707C8.68942 10.2337 8.76346 11.607 8.70962 11.8719C8.69615 11.9207 8.68269 11.9555 8.66923 11.9974C8.52788 12.3808 8.42019 12.7921 8.64231 13.9214C8.89135 15.2041 9.275 15.8733 9.55769 16.2149C9.65865 17.0096 9.94135 17.888 10.1769 18.4178C10.3519 18.8012 10.4327 19.324 10.4327 20.063C10.4327 20.7531 10.4058 20.7601 10.2577 20.8089C8.36635 21.3875 5.37115 22.5029 4.17308 23.0397C2.29519 20.7252 1.16442 17.7486 1.16442 14.5C1.16442 7.17332 6.92596 1.20601 14 1.20601Z" fill="url(#paint0_linear_0_421)"/>
<defs>
<linearGradient id="paint0_linear_0_421" x1="-13.755" y1="11.1306" x2="15.2092" y2="38.6066" gradientUnits="userSpaceOnUse">
<stop stop-color="#9C27B0"/>
<stop offset="1" stop-color="#651FFF"/>
</linearGradient>
</defs>
</svg>
