<svg width="28" height="28" viewBox="0 0 28 28" fill="none" xmlns="http://www.w3.org/2000/svg">
<path fill-rule="evenodd" clip-rule="evenodd" d="M14 0C6.26635 0 0 6.26635 0 14C0 21.7337 6.26635 28 14 28C21.7337 28 28 21.7337 28 14C28 6.26635 21.7337 0 14 0ZM14 26.8356C6.92596 26.8356 1.16442 21.0808 1.16442 14C1.16442 6.91923 6.92596 1.16442 14 1.16442C21.074 1.16442 26.8356 6.92596 26.8356 14C26.8356 21.074 21.074 26.8356 14 26.8356Z" fill="white"/>
<path fill-rule="evenodd" clip-rule="evenodd" d="M14.5452 5.38464H13.4144V13.4548H5.38461V14.5856H13.4144V22.6154H14.5452V14.5856H22.6154V13.4548H14.5452V5.38464Z" fill="white"/>
<defs>
<linearGradient id="paint0_linear_0_446" x1="-11.0925" y1="7.62135" x2="8.01271" y2="24.7829" gradientUnits="userSpaceOnUse">
<stop stop-color="#9C27B0"/>
<stop offset="1" stop-color="#651FFF"/>
</linearGradient>
<linearGradient id="paint1_linear_0_446" x1="-7.46747" y1="3.99635" x2="11.6377" y2="21.1579" gradientUnits="userSpaceOnUse">
<stop stop-color="#9C27B0"/>
<stop offset="1" stop-color="#651FFF"/>
</linearGradient>
</defs>
</svg>
