<svg width="23" height="21" viewBox="0 0 23 21" fill="none" xmlns="http://www.w3.org/2000/svg">
<ellipse cx="11.001" cy="10.5573" rx="4.66708" ry="4.34713" fill="white"/>
<path fill-rule="evenodd" clip-rule="evenodd" d="M6.83709 6.00898C8.046 4.88295 9.65328 4.25617 11.3629 4.25617C13.0726 4.25617 14.6798 4.88625 15.8888 6.01228C16.6558 6.72674 17.2038 7.58529 17.5022 8.54343H22.3068V2.52843C22.3068 1.1173 21.1358 0.0266113 19.6208 0.0266113H3.16219C1.6472 0.0266113 0.361938 1.1173 0.361938 2.52843V8.54343H5.22363C5.52206 7.58529 6.07005 6.72344 6.83709 6.00898ZM20.478 4.45536C20.478 4.83164 20.1506 5.1367 19.7465 5.1367H17.552C17.1481 5.1367 16.8206 4.83169 16.8206 4.45536V2.41132C16.8206 2.03504 17.148 1.72997 17.552 1.72997H19.7465C20.1505 1.72997 20.478 2.03498 20.478 2.41132V4.45536Z" fill="white"/>
<path fill-rule="evenodd" clip-rule="evenodd" d="M15.8888 14.4402C14.6798 15.5663 13.0726 16.1797 11.3629 16.1797C9.65328 16.1797 8.046 15.5696 6.83709 14.4436C5.63041 13.3196 4.96498 11.7905 4.96246 10.2468H0.361938V17.8587C0.361938 19.2699 1.6472 20.467 3.16219 20.467H19.6208C21.1358 20.467 22.3068 19.2699 22.3068 17.8587V10.2468H17.7634C17.7609 11.7905 17.0955 13.3163 15.8888 14.4402Z" fill="white"/>
</svg>
