<svg width="28" height="21" viewBox="0 0 28 21" fill="none" xmlns="http://www.w3.org/2000/svg">
<path fill-rule="evenodd" clip-rule="evenodd" d="M27.5025 2.42828C26.4884 2.83922 25.4044 3.11673 24.2621 3.24482C25.4277 2.60439 26.3252 1.59039 26.7448 0.384255C25.655 0.976648 24.4486 1.40893 23.1606 1.63842C22.129 0.629751 20.6604 0 19.0402 0C15.9222 0 13.3986 2.3162 13.3986 5.17143C13.3986 5.57703 13.4453 5.97196 13.5443 6.35088C8.85277 6.1374 4.69156 4.07737 1.91159 0.944626C1.42787 1.7078 1.14812 2.59906 1.14812 3.54368C1.14812 5.33687 2.15054 6.92192 3.66583 7.85054C2.73334 7.82919 1.85914 7.59437 1.1015 7.20478C1.1015 7.22613 1.1015 7.24747 1.1015 7.26882C1.1015 9.77715 3.04806 11.8639 5.62987 12.3388C5.1578 12.4563 4.65659 12.5203 4.14373 12.5203C3.78239 12.5203 3.42688 12.4883 3.08303 12.4242C3.79987 14.4789 5.88631 15.9733 8.35739 16.016C6.42831 17.4035 3.9922 18.2308 1.34627 18.2308C0.891688 18.2308 0.44293 18.2041 0 18.156C2.48857 19.6397 5.45503 20.4936 8.63713 20.4936C19.0285 20.4936 24.705 12.611 24.705 5.7745C24.705 5.55035 24.6992 5.3262 24.6875 5.10739C25.789 4.37624 26.7448 3.46897 27.5025 2.42828Z" fill="white"/>
</svg>
